<?xml version="1.0" standalone="no"?><!DOCTYPE svg PUBLIC "-//W3C//DTD SVG 1.1//EN" "http://www.w3.org/Graphics/SVG/1.1/DTD/svg11.dtd"><svg t="1725345675767" class="icon" viewBox="0 0 1042 1024" version="1.1" xmlns="http://www.w3.org/2000/svg" p-id="2574" xmlns:xlink="http://www.w3.org/1999/xlink" width="203.515625" height="200"><path d="M901.485714 109.714286V36.571429h-768v73.142857h347.428572v219.428571h-128v-36.571428c0-20.114286-16.457143-36.571429-36.571429-36.571429h-146.285714c-20.114286 0-36.571429 16.457143-36.571429 36.571429v146.285714c0 20.114286 16.457143 36.571429 36.571429 36.571428h146.285714c20.114286 0 36.571429-16.457143 36.571429-36.571428v-36.571429h128v438.857143h-128v-36.571428c0-20.114286-16.457143-36.571429-36.571429-36.571429h-146.285714c-20.114286 0-36.571429 16.457143-36.571429 36.571429v146.285714c0 20.114286 16.457143 36.571429 36.571429 36.571428h146.285714c20.114286 0 36.571429-16.457143 36.571429-36.571428v-36.571429h201.142857V658.285714h128v36.571429c0 20.114286 16.457143 36.571429 36.571428 36.571428h146.285715c20.114286 0 36.571429-16.457143 36.571428-36.571428v-146.285714c0-20.114286-16.457143-36.571429-36.571428-36.571429h-146.285715c-20.114286 0-36.571429 16.457143-36.571428 36.571429v36.571428h-128V109.714286h347.428571z" fill="#4C4C4C" p-id="2575"></path></svg>